<mxfile host="Electron" agent="Mozilla/5.0 (Windows NT 10.0; Win64; x64) AppleWebKit/537.36 (KHTML, like Gecko) draw.io/24.7.8 Chrome/128.0.6613.36 Electron/32.0.1 Safari/537.36" version="24.7.8">
  <diagram name="Страница — 1" id="YD3wQ60geyNsE5dJT7T9">
    <mxGraphModel dx="2049" dy="1263" grid="1" gridSize="10" guides="1" tooltips="1" connect="1" arrows="1" fold="1" page="1" pageScale="1" pageWidth="1920" pageHeight="1200" math="0" shadow="0">
      <root>
        <mxCell id="0" />
        <mxCell id="1" parent="0" />
        <mxCell id="vKaWlLOY_1vjzqvPO7uO-1" value="Человек который пришел регистрировать свой автомобиль" style="shape=umlActor;verticalLabelPosition=bottom;verticalAlign=top;html=1;outlineConnect=0;fillColor=#6a00ff;fontColor=#ffffff;strokeColor=#3700CC;" vertex="1" parent="1">
          <mxGeometry x="200" y="170" width="150" height="260" as="geometry" />
        </mxCell>
        <mxCell id="vKaWlLOY_1vjzqvPO7uO-23" style="edgeStyle=orthogonalEdgeStyle;rounded=0;orthogonalLoop=1;jettySize=auto;html=1;exitX=0.75;exitY=1;exitDx=0;exitDy=0;" edge="1" parent="1" source="vKaWlLOY_1vjzqvPO7uO-3" target="vKaWlLOY_1vjzqvPO7uO-22">
          <mxGeometry relative="1" as="geometry" />
        </mxCell>
        <mxCell id="vKaWlLOY_1vjzqvPO7uO-3" value="Сотрудник ГАИ, который фиксирует информацию об новом автомобиле этого человека, а также его персональные данные" style="shape=actor;whiteSpace=wrap;html=1;fillColor=#60a917;fontColor=#ffffff;strokeColor=#2D7600;" vertex="1" parent="1">
          <mxGeometry x="760" y="200" width="200" height="250" as="geometry" />
        </mxCell>
        <mxCell id="vKaWlLOY_1vjzqvPO7uO-4" value="" style="shape=flexArrow;endArrow=classic;html=1;rounded=0;exitX=1;exitY=0.3333333333333333;exitDx=0;exitDy=0;exitPerimeter=0;entryX=0.1;entryY=0.5;entryDx=0;entryDy=0;entryPerimeter=0;fillColor=#a20025;strokeColor=#6F0000;" edge="1" parent="1" source="vKaWlLOY_1vjzqvPO7uO-1" target="vKaWlLOY_1vjzqvPO7uO-3">
          <mxGeometry width="50" height="50" relative="1" as="geometry">
            <mxPoint x="580" y="500" as="sourcePoint" />
            <mxPoint x="630" y="450" as="targetPoint" />
          </mxGeometry>
        </mxCell>
        <mxCell id="vKaWlLOY_1vjzqvPO7uO-5" value="&lt;font style=&quot;font-size: 14px;&quot;&gt;Передает информацию, которую требует администратор&lt;/font&gt;&lt;div style=&quot;font-size: 14px;&quot;&gt;&lt;br&gt;&lt;/div&gt;" style="edgeLabel;html=1;align=center;verticalAlign=middle;resizable=0;points=[];rotation=10;" vertex="1" connectable="0" parent="vKaWlLOY_1vjzqvPO7uO-4">
          <mxGeometry x="0.0257" y="8" relative="1" as="geometry">
            <mxPoint as="offset" />
          </mxGeometry>
        </mxCell>
        <mxCell id="vKaWlLOY_1vjzqvPO7uO-6" value="" style="endArrow=none;dashed=1;html=1;dashPattern=1 3;strokeWidth=2;rounded=0;exitX=0.5;exitY=0.5;exitDx=0;exitDy=0;exitPerimeter=0;entryX=-0.006;entryY=0.856;entryDx=0;entryDy=0;entryPerimeter=0;" edge="1" parent="1" source="vKaWlLOY_1vjzqvPO7uO-1" target="vKaWlLOY_1vjzqvPO7uO-3">
          <mxGeometry width="50" height="50" relative="1" as="geometry">
            <mxPoint x="580" y="500" as="sourcePoint" />
            <mxPoint x="630" y="450" as="targetPoint" />
          </mxGeometry>
        </mxCell>
        <mxCell id="vKaWlLOY_1vjzqvPO7uO-7" value="Возврат данных в случае если они некорректные&lt;div&gt;&lt;br&gt;&lt;/div&gt;" style="edgeLabel;html=1;align=center;verticalAlign=middle;resizable=0;points=[];" vertex="1" connectable="0" parent="vKaWlLOY_1vjzqvPO7uO-6">
          <mxGeometry x="0.02" y="3" relative="1" as="geometry">
            <mxPoint x="1" as="offset" />
          </mxGeometry>
        </mxCell>
        <mxCell id="vKaWlLOY_1vjzqvPO7uO-8" value="Регистрация автомобиля, его тех характеристик и персональной информации о пользователе&lt;div&gt;&lt;br&gt;&lt;/div&gt;" style="rounded=0;whiteSpace=wrap;html=1;" vertex="1" parent="1">
          <mxGeometry x="260" y="770" width="310" height="120" as="geometry" />
        </mxCell>
        <mxCell id="vKaWlLOY_1vjzqvPO7uO-9" style="edgeStyle=orthogonalEdgeStyle;rounded=0;orthogonalLoop=1;jettySize=auto;html=1;exitX=0.25;exitY=1;exitDx=0;exitDy=0;entryX=0.459;entryY=0.035;entryDx=0;entryDy=0;entryPerimeter=0;" edge="1" parent="1" source="vKaWlLOY_1vjzqvPO7uO-3" target="vKaWlLOY_1vjzqvPO7uO-24">
          <mxGeometry relative="1" as="geometry">
            <mxPoint x="250" y="630" as="targetPoint" />
          </mxGeometry>
        </mxCell>
        <mxCell id="vKaWlLOY_1vjzqvPO7uO-11" value="Оператор ГАИ" style="shape=actor;whiteSpace=wrap;html=1;" vertex="1" parent="1">
          <mxGeometry x="850" y="910" width="150" height="200" as="geometry" />
        </mxCell>
        <mxCell id="vKaWlLOY_1vjzqvPO7uO-12" style="edgeStyle=orthogonalEdgeStyle;rounded=0;orthogonalLoop=1;jettySize=auto;html=1;exitX=0.9;exitY=0.5;exitDx=0;exitDy=0;exitPerimeter=0;entryX=0.962;entryY=1.011;entryDx=0;entryDy=0;entryPerimeter=0;" edge="1" parent="1" source="vKaWlLOY_1vjzqvPO7uO-11" target="vKaWlLOY_1vjzqvPO7uO-3">
          <mxGeometry relative="1" as="geometry" />
        </mxCell>
        <mxCell id="vKaWlLOY_1vjzqvPO7uO-13" value="&lt;font style=&quot;font-size: 14px;&quot;&gt;Передали информацию о ДТП&lt;/font&gt;" style="edgeLabel;html=1;align=center;verticalAlign=middle;resizable=0;points=[];" vertex="1" connectable="0" parent="vKaWlLOY_1vjzqvPO7uO-12">
          <mxGeometry x="-0.0307" y="5" relative="1" as="geometry">
            <mxPoint as="offset" />
          </mxGeometry>
        </mxCell>
        <mxCell id="vKaWlLOY_1vjzqvPO7uO-14" value="&lt;div&gt;Фиксация ДТП по поступившей информации&lt;/div&gt;" style="rounded=0;whiteSpace=wrap;html=1;" vertex="1" parent="1">
          <mxGeometry x="1130" y="490" width="310" height="120" as="geometry" />
        </mxCell>
        <mxCell id="vKaWlLOY_1vjzqvPO7uO-15" style="edgeStyle=orthogonalEdgeStyle;rounded=0;orthogonalLoop=1;jettySize=auto;html=1;exitX=0.5;exitY=1;exitDx=0;exitDy=0;entryX=0.003;entryY=0.344;entryDx=0;entryDy=0;entryPerimeter=0;" edge="1" parent="1" source="vKaWlLOY_1vjzqvPO7uO-3" target="vKaWlLOY_1vjzqvPO7uO-14">
          <mxGeometry relative="1" as="geometry" />
        </mxCell>
        <mxCell id="vKaWlLOY_1vjzqvPO7uO-16" value="Запрос от начальства по владельцу Авто и данных&amp;nbsp; о нем&lt;div&gt;&lt;br&gt;&lt;/div&gt;" style="shape=actor;whiteSpace=wrap;html=1;" vertex="1" parent="1">
          <mxGeometry x="255" y="920" width="155" height="200" as="geometry" />
        </mxCell>
        <mxCell id="vKaWlLOY_1vjzqvPO7uO-17" style="edgeStyle=orthogonalEdgeStyle;rounded=0;orthogonalLoop=1;jettySize=auto;html=1;exitX=0.9;exitY=0.5;exitDx=0;exitDy=0;exitPerimeter=0;entryX=0.005;entryY=0.988;entryDx=0;entryDy=0;entryPerimeter=0;" edge="1" parent="1" source="vKaWlLOY_1vjzqvPO7uO-16" target="vKaWlLOY_1vjzqvPO7uO-3">
          <mxGeometry relative="1" as="geometry" />
        </mxCell>
        <mxCell id="vKaWlLOY_1vjzqvPO7uO-18" value="&lt;div&gt;Просмотр информации по заданной начальством просьбе, найти водителя&lt;/div&gt;&lt;div&gt;&lt;br&gt;&lt;/div&gt;&lt;div&gt;&lt;br&gt;&lt;/div&gt;" style="rounded=0;whiteSpace=wrap;html=1;" vertex="1" parent="1">
          <mxGeometry x="1130" y="690" width="310" height="120" as="geometry" />
        </mxCell>
        <mxCell id="vKaWlLOY_1vjzqvPO7uO-19" style="edgeStyle=orthogonalEdgeStyle;rounded=0;orthogonalLoop=1;jettySize=auto;html=1;exitX=0.25;exitY=1;exitDx=0;exitDy=0;entryX=-0.006;entryY=0.082;entryDx=0;entryDy=0;entryPerimeter=0;" edge="1" parent="1" source="vKaWlLOY_1vjzqvPO7uO-3" target="vKaWlLOY_1vjzqvPO7uO-18">
          <mxGeometry relative="1" as="geometry" />
        </mxCell>
        <mxCell id="vKaWlLOY_1vjzqvPO7uO-21" style="edgeStyle=orthogonalEdgeStyle;rounded=0;orthogonalLoop=1;jettySize=auto;html=1;exitX=0.9;exitY=0.5;exitDx=0;exitDy=0;exitPerimeter=0;entryX=0.25;entryY=1;entryDx=0;entryDy=0;" edge="1" parent="1" source="vKaWlLOY_1vjzqvPO7uO-20" target="vKaWlLOY_1vjzqvPO7uO-3">
          <mxGeometry relative="1" as="geometry" />
        </mxCell>
        <mxCell id="vKaWlLOY_1vjzqvPO7uO-20" value="Запрос от начальства по произошедшемо ДТП&lt;div&gt;&lt;br&gt;&lt;div&gt;&lt;br&gt;&lt;/div&gt;&lt;/div&gt;" style="shape=actor;whiteSpace=wrap;html=1;" vertex="1" parent="1">
          <mxGeometry x="60" y="910" width="155" height="200" as="geometry" />
        </mxCell>
        <mxCell id="vKaWlLOY_1vjzqvPO7uO-22" value="Просмотр информации и поиск по предоставленным данным для запроса&lt;div&gt;&lt;br&gt;&lt;/div&gt;" style="rounded=0;whiteSpace=wrap;html=1;" vertex="1" parent="1">
          <mxGeometry x="1130" y="870" width="310" height="120" as="geometry" />
        </mxCell>
        <mxCell id="vKaWlLOY_1vjzqvPO7uO-25" style="edgeStyle=orthogonalEdgeStyle;rounded=0;orthogonalLoop=1;jettySize=auto;html=1;exitX=0.5;exitY=1;exitDx=0;exitDy=0;entryX=0.5;entryY=0;entryDx=0;entryDy=0;" edge="1" parent="1" source="vKaWlLOY_1vjzqvPO7uO-24" target="vKaWlLOY_1vjzqvPO7uO-8">
          <mxGeometry relative="1" as="geometry" />
        </mxCell>
        <mxCell id="vKaWlLOY_1vjzqvPO7uO-24" value="&lt;div&gt;Просмотр свободных номеров, фиксация на основе отчета по свободным номерам&lt;/div&gt;" style="rounded=0;whiteSpace=wrap;html=1;" vertex="1" parent="1">
          <mxGeometry x="260" y="630" width="310" height="120" as="geometry" />
        </mxCell>
      </root>
    </mxGraphModel>
  </diagram>
</mxfile>
